<?xml version="1.0" standalone="no"?>
<!DOCTYPE svg PUBLIC "-//W3C//DTD SVG 20010904//EN"
 "http://www.w3.org/TR/2001/REC-SVG-20010904/DTD/svg10.dtd">
<svg version="1.0" xmlns="http://www.w3.org/2000/svg"
 width="50.000000pt" height="50.000000pt" viewBox="0 0 50.000000 50.000000"
 preserveAspectRatio="xMidYMid meet">
<metadata>
Created by potrace 1.10, written by Peter Selinger 2001-2011
</metadata>
<g transform="translate(0.000000,50.000000) scale(0.050000,-0.050000)"
fill="#000000" stroke="none">
<path d="M150 500 c0 -197 1 -200 48 -200 44 0 46 6 34 80 -9 61 -6 80 15 80
15 0 52 -36 81 -80 32 -49 68 -80 92 -80 52 0 50 13 -12 95 -52 67 -52 69 -13
96 119 83 39 209 -131 209 l-114 0 0 -200z m210 110 c35 -43 -8 -90 -82 -90
-51 0 -58 7 -58 60 0 68 92 88 140 30z"/>
<path d="M520 553 c0 -193 41 -253 170 -253 129 0 170 60 170 253 0 134 -4
147 -40 147 -36 0 -40 -13 -40 -139 0 -177 -43 -233 -141 -180 -33 17 -39 43
-39 170 0 136 -4 149 -40 149 -36 0 -40 -13 -40 -147z"/>
</g>
</svg>
