<?xml version="1.0" standalone="no"?>
<!DOCTYPE svg PUBLIC "-//W3C//DTD SVG 20010904//EN"
 "http://www.w3.org/TR/2001/REC-SVG-20010904/DTD/svg10.dtd">
<svg version="1.0" xmlns="http://www.w3.org/2000/svg"
 width="120.000000pt" height="100.000000pt" viewBox="0 0 300.000000 219.000000"
 preserveAspectRatio="xMidYMid meet">
<metadata>
Created by potrace 1.10, written by Peter Selinger 2001-2011
</metadata>
<g transform="translate(0.000000,219.000000) scale(0.100000,-0.100000)">
<path d="M202 2118 c-9 -9 -12 -248 -12 -1014 0 -898 2 -1004 16 -1018 14 -14
145 -16 1294 -16 1149 0 1280 2 1294 16 14 14 16 120 16 1019 0 983 0 1005
-19 1015 -30 16 -2573 14 -2589 -2z m2518 -1018 l0 -940 -1220 0 -1220 0 0
940 0 940 1220 0 1220 0 0 -940z"/>
<path d="M1030 1825 l0 -115 -325 0 -325 0 0 -45 0 -45 325 0 325 0 0 -680 0
-680 45 0 45 0 2 678 3 677 375 0 375 0 3 -677 2 -678 45 0 45 0 0 680 0 680
325 0 325 0 0 45 0 45 -325 0 -325 0 0 115 0 115 -45 0 -45 0 0 -115 0 -115
-380 0 -380 0 0 115 0 115 -45 0 -45 0 0 -115z"/>
<path d="M392 1508 c-9 -9 -12 -73 -12 -225 0 -194 2 -214 18 -220 9 -4 105
-7 213 -8 152 0 200 3 212 14 15 12 17 40 17 220 0 148 -3 210 -12 219 -17 17
-419 17 -436 0z m358 -218 l0 -140 -140 0 -140 0 0 140 0 140 140 0 140 0 0
-140z"/>
<path d="M532 1368 c-27 -27 -7 -78 29 -78 21 0 49 26 49 45 0 35 -53 58 -78
33z"/>
<path d="M1230 1500 c-7 -12 -9 -93 -8 -221 3 -218 1 -211 61 -224 l27 -5 0
-141 c0 -78 5 -149 10 -160 10 -18 23 -19 223 -19 152 0 216 3 225 12 17 17
17 419 0 436 -7 7 -27 12 -45 12 l-33 0 0 143 c0 202 19 187 -240 187 -198 0
-210 -1 -220 -20z m361 -87 c1 -10 2 -73 3 -140 l1 -123 -142 0 -143 0 0 140
0 140 140 0 c126 0 140 -2 141 -17z m99 -463 l0 -131 -142 3 -143 3 2 109 c1
59 4 110 6 113 3 2 60 6 127 8 68 2 128 9 133 14 6 6 12 11 14 11 2 0 3 -59 3
-130z"/>
<path d="M1466 1358 c-13 -19 -14 -25 -2 -43 7 -11 24 -20 36 -20 12 0 29 9
36 20 12 18 11 24 -2 43 -8 12 -24 22 -34 22 -10 0 -26 -10 -34 -22z"/>
<path d="M2172 1508 c-9 -9 -12 -71 -12 -219 0 -180 2 -208 17 -220 12 -11 60
-14 212 -14 108 1 204 4 214 8 15 6 17 26 17 220 0 152 -3 216 -12 225 -17 17
-419 17 -436 0z m358 -218 l0 -140 -140 0 -140 0 0 140 0 140 140 0 140 0 0
-140z"/>
<path d="M2406 1364 c-9 -8 -16 -22 -16 -29 0 -7 7 -21 16 -29 30 -30 74 -13
74 29 0 42 -44 59 -74 29z"/>
<path d="M572 908 c-5 -7 -44 -94 -86 -193 -60 -140 -75 -184 -68 -200 7 -14
67 -44 196 -97 102 -43 190 -78 194 -78 20 0 43 43 111 205 41 97 71 181 69
195 -3 22 -23 33 -183 102 -183 79 -215 88 -233 66z m315 -201 c2 -3 -102
-246 -109 -252 -5 -5 -239 88 -257 101 -2 2 13 43 34 91 21 48 46 107 56 130
l18 42 128 -55 c70 -31 129 -56 130 -57z"/>
<path d="M645 720 c-15 -17 -16 -24 -7 -45 20 -43 82 -28 82 20 0 45 -44 59
-75 25z"/>
<path d="M2076 894 c-13 -12 -16 -40 -16 -140 0 -69 5 -134 10 -145 10 -18 23
-19 223 -19 152 0 216 3 225 12 17 17 17 279 0 296 -9 9 -71 12 -219 12 -175
0 -210 -2 -223 -16z m364 -144 l0 -70 -139 0 -138 0 -6 56 c-9 87 -14 84 144
84 l139 0 0 -70z"/>
<path d="M1230 611 c-15 -28 -13 -274 2 -289 9 -9 73 -12 225 -12 200 0 213 1
223 19 5 11 10 76 10 144 0 107 -2 126 -18 140 -16 15 -47 17 -225 17 -194 0
-207 -1 -217 -19z m363 -127 c9 -87 14 -84 -144 -84 l-139 0 0 70 0 70 139 0
138 0 6 -56z"/>
</g>
</svg>
