<svg viewBox="0 0 1024 1024" version="1.1" xmlns="http://www.w3.org/2000/svg">
    <path d="M630.153846 344.615385c0-15.753846-13.784615-29.538462-29.538461-29.538462h-177.23077c-15.753846 0-29.538462 13.784615-29.538461 29.538462v531.692307c0 15.753846 13.784615 29.538462 29.538461 29.538462h177.23077c15.753846 0 29.538462-13.784615 29.538461-29.538462v-531.692307z m-354.461538 0c0-15.753846-13.784615-29.538462-29.538462-29.538462h-177.230769c-15.753846 0-29.538462 13.784615-29.538462 29.538462v610.461538c0 15.753846 13.784615 29.538462 29.538462 29.538462h177.230769c15.753846 0 29.538462-13.784615 29.538462-29.538462v-610.461538z m708.923077 0c0-15.753846-13.784615-29.538462-29.538462-29.538462h-177.230769c-15.753846 0-29.538462 13.784615-29.538462 29.538462v452.923077c0 15.753846 13.784615 29.538462 29.538462 29.538461h177.230769c15.753846 0 29.538462-13.784615 29.538462-29.538461v-452.923077z m0-275.692308c0-15.753846-13.784615-29.538462-29.538462-29.538462h-886.153846C53.169231 39.384615 39.384615 53.169231 39.384615 68.923077v98.461538c0 15.753846 13.784615 29.538462 29.538462 29.538462h886.153846c15.753846 0 29.538462-13.784615 29.538462-29.538462v-98.461538z"  />
</svg>
